<?xml version="1.0" encoding="utf-8"?>
<!-- Generator: Adobe Illustrator 25.0.1, SVG Export Plug-In . SVG Version: 6.00 Build 0)  -->
<svg version="1.1" id="Layer_1" xmlns="http://www.w3.org/2000/svg" xmlns:xlink="http://www.w3.org/1999/xlink" x="0px" y="0px"
	 viewBox="0 0 20 16" style="enable-background:new 0 0 20 16;" xml:space="preserve">
<style type="text/css">
	.st0{fill:none;}
	.st1{fill-rule:evenodd;clip-rule:evenodd;fill:#FFA500;}
</style>
<polygon id="Path" class="st0" points="-2,-4 22,-4 22,20 -2,20 "/>
<path class="st1" d="M18,0H2C0.9,0,0,0.9,0,2v12c0,1.1,0.9,2,2,2h16c1.1,0,2-0.9,2-2V2C20,0.9,19.1,0,18,0z M17.6,4.2l-7.1,4.4
	c-0.3,0.2-0.7,0.2-1.1,0l-7-4.4C2.2,4.1,2,3.8,2,3.5c0-0.7,0.7-1.1,1.3-0.7L10,7l6.7-4.2C17.3,2.5,18,2.9,18,3.5
	C18,3.8,17.9,4.1,17.6,4.2z"/>
</svg>
