<?xml version="1.0" encoding="utf-8"?>
<!-- Generator: Adobe Illustrator 25.0.1, SVG Export Plug-In . SVG Version: 6.00 Build 0)  -->
<svg version="1.1" id="Layer_1" xmlns="http://www.w3.org/2000/svg" xmlns:xlink="http://www.w3.org/1999/xlink" x="0px" y="0px"
	 viewBox="0 0 48 48" style="enable-background:new 0 0 48 48;" xml:space="preserve">
<style type="text/css">
	.st0{fill:#FFFFFF;}
</style>
<g>
	<path id="i-2168" class="st0" d="M44.9,0c-1.2,0-2.2,0.4-3,0.9C41.8,0.4,41.6,0,41.1,0c-1.2,0-0.5,0.8,0.2,1.4
		c-0.2,0.1-0.3,0.3-0.5,0.4C40.7,1.4,40.4,1,39.9,1c-1.2,0-0.5,0.8,0.3,1.4c-0.1,0.1-0.2,0.2-0.4,0.4C39.7,2.4,39.4,2,38.9,2
		c-1.2,0-0.5,0.8,0.3,1.4c-0.1,0.1-0.2,0.2-0.3,0.3C38.7,3.3,38.5,3,38,3c-1.2,0-0.5,0.8,0.2,1.4c-0.1,0.1-0.2,0.2-0.4,0.4
		C37.7,4.3,37.5,4,37,4c-1.2,0-0.5,0.8,0.2,1.4c-0.1,0.1-0.2,0.2-0.4,0.4C36.7,5.3,36.5,5,36,5c-1.2,0-0.5,0.8,0.2,1.4L36,6.6V7
		c0,1.3-0.5,2-0.6,2.2L18.9,25.7C18.5,25.3,18,24.8,18,24c0-0.7,0.8-1.7,1.3-2.3c0.6-0.7,1.1-1.2,0.8-2c-0.1-0.2-0.3-0.7-1-0.8
		c-4.6-0.8-6,2.6-6.9,5c-0.5,1.3-1,2.5-1.8,3.1c-1.3,0.9-2.8,1.6-4.2,2.2C3.1,30.7,0,32,0,36c0,5.4,6.8,12,11,12
		c4.9,0,6.2-3.2,7.2-5.8c0.8-1.9,1.4-3.5,3.2-4.2c4.5-1.8,5.3-4.4,5.1-5.6C26.3,31.5,25.7,31,25,31c-0.7,0-1.2,0.3-1.5,0.6
		C23.1,31.8,22.9,32,22,32c-0.4,0-0.8-0.1-1-0.3c-0.2-0.3-0.2-0.8-0.1-1.2l17.8-17.8l0,0c0.6-0.6,1.2-0.7,3-0.7l0.3,0
		c1.2,0,1.5-1.3,1.9-3c0.2-0.8,0.7-2.8,1.1-3c1.7,0,3-1.3,3-3C48,1.4,46.7,0,44.9,0z M22,34c1.1,0,1.8-0.3,2.3-0.6
		c-0.4,0.7-1.4,1.7-3.7,2.6c-2.5,1-3.5,3.3-4.3,5.4C15.3,44,14.5,46,11,46c-3,0-9-5.5-9-10c0-2.5,1.8-3.4,5-4.8
		c1.6-0.7,3.2-1.4,4.6-2.4c1.3-0.9,1.9-2.5,2.5-4c0.9-2.2,1.6-3.7,3.3-3.9C16.7,21.7,16,22.8,16,24c0,1.5,0.8,2.5,1.5,3.1L16.6,28
		l2.3,2.3c-0.1,0.7-0.1,1.7,0.5,2.5C19.7,33.4,20.5,34,22,34z M20,28.6L19.4,28L36,11.4l0.6,0.6L20,28.6z M45,4c-2,0-2.5,2.5-3,4.5
		C41.9,9,41.7,9.7,41.6,10c-1.4,0-2.5,0-3.5,0.6l-0.8-0.8c0.3-0.5,0.6-1.4,0.7-2.4c0.7-0.7,2.5-2.5,3.8-3.7C42.5,2.9,43.4,2,45,2
		c0,0,0,0,0,0c0.5,0,1,0.5,1,1C46,3.6,45.6,4,45,4z M14.7,30.3l3,3l-1.4,1.4l-3-3L14.7,30.3z M11.7,33.3l3,3l-1.4,1.4l-3-3
		L11.7,33.3z M11.7,40.3l-1.4,1.4l-4-4l1.4-1.4L11.7,40.3z M14,41c0,0.6-0.4,1-1,1s-1-0.4-1-1s0.4-1,1-1S14,40.4,14,41z M17,38
		c0,0.6-0.4,1-1,1s-1-0.4-1-1s0.4-1,1-1S17,37.4,17,38z M13,44c0,0.6-0.4,1-1,1s-1-0.4-1-1s0.4-1,1-1S13,43.4,13,44z"/>
</g>
</svg>
